<svg id="Layer_5" data-name="Layer 5" xmlns="http://www.w3.org/2000/svg" viewBox="0 0 1080 1920">
  <defs>
    <style>
      .cls-1 {
        fill: #606060;
      }

      .cls-2 {
        fill: #c4664e;
      }

      .cls-3 {
        fill: #caaaa1;
      }

      .cls-4 {
        fill: #964832;
      }

      .cls-5 {
        fill: #f79e7c;
      }

      .cls-11, .cls-13, .cls-17, .cls-20, .cls-22, .cls-6 {
        fill: none;
      }

      .cls-11, .cls-16, .cls-22, .cls-6 {
        stroke: #000;
      }

      .cls-6 {
        stroke-miterlimit: 10;
      }

      .cls-11, .cls-13, .cls-16, .cls-17, .cls-6 {
        stroke-width: 10px;
      }

      .cls-7 {
        fill: #c5664e;
      }

      .cls-8 {
        fill: #9a4632;
      }

      .cls-9 {
        fill: #331209;
      }

      .cls-10 {
        fill: #83191b;
      }

      .cls-11, .cls-13, .cls-16, .cls-17, .cls-20, .cls-22 {
        stroke-linecap: round;
        stroke-linejoin: round;
      }

      .cls-12 {
        fill: #331205;
      }

      .cls-13 {
        stroke: #e48629;
      }

      .cls-14 {
        fill: #e48629;
      }

      .cls-15 {
        fill: #b97772;
      }

      .cls-16 {
        fill: #caaba1;
      }

      .cls-17 {
        stroke: #f79e7c;
      }

      .cls-18 {
        fill: #331309;
      }

      .cls-19 {
        fill: #974633;
      }

      .cls-20 {
        stroke: #fff;
        stroke-width: 5px;
      }

      .cls-21 {
        fill: #fff;
      }

      .cls-22 {
        stroke-width: 8px;
      }
    </style>
  </defs>
  <title>Foxi_Vector_old</title>
  <ellipse class="cls-1" cx="567" cy="1371.5" rx="327" ry="55.5"/>
  <g>
    <path class="cls-2" d="M615.15,1164c-3-6.32,19.62-166.2,132-243,73.76-50.46,96.51-68.74,115.36-99.11,32.25-52,54.88-182.46,74.78-200.14s25.21,129,27.36,185.44-35.11,221.35-77.1,288.67c-31.44,50.4-103.62,153.37-224.62,117.6C612.2,1198.43,615.15,1164,615.15,1164Z"/>
    <path class="cls-3" d="M938.71,628c-13.43,11.94-28.11,75.29-46.16,131.19A70.93,70.93,0,0,0,963.62,757C960.27,693,953.55,614.82,938.71,628Z"/>
    <path class="cls-4" d="M961.82,787.51c-.74-3-11.77,227.09-119.86,313.79s-210.37,86.1-210.37,86.1-6,9.7,29,23.63,60.86,15.94,71.07,14.55,68.52-19.19,102.89-57.79,80.86-98.14,94.4-155.9S971.33,826.86,961.82,787.51Z"/>
    <path class="cls-5" d="M897.74,753.88A351.91,351.91,0,0,1,885.2,799.7l-2,5.61-2.09,5.58c-1.4,3.72-2.93,7.4-4.51,11.08s-3.3,7.31-5.15,10.93a76.93,76.93,0,0,1-6.6,10.74,87.59,87.59,0,0,1-8.48,9.21c-3,2.79-5.95,5.47-9,8-6.15,5.11-12.5,9.89-19,14.47a345.85,345.85,0,0,1-40.55,24.76c11.78-10.64,23.86-20.73,35.75-30.94l8.87-7.66c2.92-2.59,5.85-5.15,8.71-7.76s5.67-5.24,8.35-8a82.67,82.67,0,0,0,7.43-8.23,69.21,69.21,0,0,0,5.81-9.31c1.84-3.33,3.56-6.79,5.26-10.26,3.4-7,6.62-14.09,9.87-21.21C884.36,782.51,890.72,768.12,897.74,753.88Z"/>
    <path class="cls-6" d="M617.47,1165.61c-3-6.33,19.62-166.21,132-243,73.76-50.46,96.51-68.75,115.36-99.12C897,771.5,919.68,641,939.58,623.32s25.2,129,27.36,185.44-35.11,221.35-77.1,288.67c-31.44,50.4-103.63,153.37-224.63,117.6C614.52,1200,617.47,1165.61,617.47,1165.61Z"/>
  </g>
  <g>
    <path class="cls-7" d="M231,1100.83l72.66-57.19s19.72-16.22,38.76,4.24c20.63,22.17,3,43.79,3,43.79l-72.65,57.18c-14.8,12.67-36.15,12.18-47.68-1.08h0C213.54,1134.51,216.19,1113.49,231,1100.83Z"/>
    <path class="cls-8" d="M233.48,1153.16a34.67,34.67,0,0,0,16-.27,46.3,46.3,0,0,0,13.56-6c2-1.28,4.15-2.85,6.28-4.45s4.33-3.27,6.47-5,4.37-3.42,6.56-5.15l6.62-5.19c8.87-6.92,17.95-13.74,27.39-20.22a230.31,230.31,0,0,1,30-17.77l.14-.06a.49.49,0,0,1,.65.23.5.5,0,0,1-.11.57q-6.27,5.89-12.62,11.67c-4.27,3.84-8.57,7.62-12.9,11.39-8.65,7.51-17.42,14.91-26.41,22-4.52,3.53-9.12,7-13.83,10.27-2.37,1.64-4.74,3.27-7.2,4.78a70.92,70.92,0,0,1-7.59,4.24,42.47,42.47,0,0,1-16.87,4.18,33.55,33.55,0,0,1-8.7-1,26.07,26.07,0,0,1-8.05-3.46.48.48,0,0,1,.37-.86Z"/>
    <path class="cls-9" d="M283,1099.37h0c-8-9.17-10.55-21.3-8.17-33l-42.17,33.19c-14.79,12.67-17.44,33.68-5.91,47h0c11.53,13.26,32.88,13.74,47.68,1.08l45.68-35.95C306.26,1114,292.16,1109.92,283,1099.37Z"/>
    <path d="M343.91,1092.61c-17.52,16.71-35.65,32.62-54,48.28q-6.88,5.86-13.81,11.67c-1.14,1-2.42,2.08-3.78,3.08a43.77,43.77,0,0,1-4.25,2.72,42.56,42.56,0,0,1-9.38,3.88,39.4,39.4,0,0,1-20.4.19,34.5,34.5,0,0,1-17.53-11.16,34.14,34.14,0,0,1-7.74-19.31,38.92,38.92,0,0,1,4-20,42.5,42.5,0,0,1,5.61-8.45,38.85,38.85,0,0,1,3.5-3.64c.61-.57,1.31-1.15,2-1.71l1.8-1.36c4.81-3.66,9.65-7.27,14.49-10.88,19.41-14.4,39-28.56,59.19-41.93-17.62,16.61-35.83,32.42-54.23,48q-6.91,5.82-13.86,11.6l-1.74,1.44c-.47.46-.92.85-1.39,1.34a37.36,37.36,0,0,0-2.65,3,32.64,32.64,0,0,0-4.15,6.72,29.79,29.79,0,0,0-2.74,15.1,24.39,24.39,0,0,0,5.59,13.71,24.64,24.64,0,0,0,12.47,8,30.12,30.12,0,0,0,15.38.16,33,33,0,0,0,7.39-2.79,36.07,36.07,0,0,0,3.44-2c1.11-.74,2.14-1.55,3.35-2.48q7.19-5.52,14.43-11C304.26,1120.31,323.78,1106.06,343.91,1092.61Z"/>
  </g>
  <g>
    <path class="cls-7" d="M307.53,1042.92l80.24-64.38,40.15,46.54-80.24,64.38c-14.36,11.44-32.89,8.44-44-4.41h0C292.61,1072.2,293.11,1055.19,307.53,1042.92Z"/>
    <path class="cls-8" d="M342.3,1093.25c.74-1,1.52-1.84,2.24-2.75s1.5-1.67,2.22-2.58,1.46-1.73,2.18-2.59,1.49-1.62,2.19-2.52q2.19-2.55,4.42-5c.73-.85,1.49-1.65,2.23-2.47s1.49-1.62,2.26-2.4q9.07-9.59,19-18.22a230.42,230.42,0,0,1,20.88-16.32A131.34,131.34,0,0,1,423.79,1025l.18-.07a.48.48,0,0,1,.52.78c-3.13,3.16-6.3,6.28-9.47,9.4s-6.45,6.13-9.69,9.17q-9.75,9.11-19.73,18c-6.73,5.81-13.59,11.5-20.6,17s-14.23,10.79-22.25,14.85a.47.47,0,0,1-.59-.7Z"/>
    <path d="M303.44,1045.62q4.88-4.68,9.86-9.24l5-4.57,5-4.5q10-9,20.24-17.84l10.23-8.78,10.29-8.7,10.35-8.63,10.4-8.56a4.7,4.7,0,0,1,6.5.51l.09.11,10.16,11.52,10.08,11.6,10,11.67,9.91,11.74.09.1a4.71,4.71,0,0,1-.52,6.6q-10.31,8.91-20.76,17.55l-10.55,8.57c-3.55,2.82-7.1,5.64-10.68,8.42-7.17,5.55-14.43,11-21.87,16.21l-5.59,3.9c-1.9,1.26-3.79,2.51-5.71,3.74a128.15,128.15,0,0,1-11.78,6.86c7.2-5.51,13.84-11.62,20.61-17.59l20-18.24,39.93-36.56-.44,6.7-10.15-11.54-10.08-11.6-10-11.67-9.91-11.74,6.6.62-10.69,8.21-10.73,8.14-10.8,8.07-10.85,8q-10.89,7.95-21.94,15.7l-5.51,3.88-5.57,3.82Q309.09,1041.93,303.44,1045.62Z"/>
    <path class="cls-10" d="M450.78,1017.67l-80,64.69-52.08-58.76,80.05-64.69a39.27,39.27,0,0,1,55.42,3.34h0A39.26,39.26,0,0,1,450.78,1017.67Z"/>
    <path class="cls-11" d="M450.78,1017.67l-80,64.69-52.08-58.76,80.05-64.69a39.27,39.27,0,0,1,55.42,3.34h0A39.26,39.26,0,0,1,450.78,1017.67Z"/>
  </g>
  <path class="cls-7" d="M863,1101.94l-72.44-56.42s-19.81-16.43-38.71,4c-20.49,22.15-2.86,43.63-2.86,43.63l72.55,56.75c14.78,12.57,36,12,47.49-1.22h0C880.46,1135.44,877.76,1114.51,863,1101.94Z"/>
  <path class="cls-8" d="M861.86,1155.2a21,21,0,0,1-7.13,4.85,24.3,24.3,0,0,1-8.79,1.92,27.5,27.5,0,0,1-9.12-1.32,35.44,35.44,0,0,1-8.31-4c-9.44-6-18.55-12.26-27.52-18.81s-17.71-13.38-26.23-20.52a286.68,286.68,0,0,1-24.55-22.83A286.24,286.24,0,0,1,779.4,1111q14.08,8.94,27.52,18.79c9,6.55,17.74,13.41,26.23,20.5a29,29,0,0,0,13.14,6.72A26,26,0,0,0,861.86,1155.2Z"/>
  <path class="cls-9" d="M811.17,1100.65h0c7.92-9.17,10.45-21.25,8-32.91l42.1,32.94c14.78,12.57,17.48,33.5,6,46.74h0c-11.45,13.25-32.71,13.8-47.49,1.23L774.24,1113C788,1115.33,802.06,1111.18,811.17,1100.65Z"/>
  <path d="M749.29,1093.83c20.4,13.39,40.19,27.59,59.79,42q7.35,5.42,14.64,10.91l1.73,1.33c.57.42,1.11.79,1.67,1.17a36.38,36.38,0,0,0,3.46,2,33.07,33.07,0,0,0,7.47,2.76,29.87,29.87,0,0,0,15.46-.34,24.43,24.43,0,0,0,17.66-22.26,28.32,28.32,0,0,0-.58-7.72,32.22,32.22,0,0,0-2.62-7.43,32.73,32.73,0,0,0-4.39-6.65,37.88,37.88,0,0,0-2.74-2.9c-.24-.22-.45-.43-.72-.66l-.87-.73-1.76-1.45-14-11.65c-18.57-15.65-37-31.53-54.79-48.19,20.35,13.45,40.11,27.69,59.7,42.15L863,1097.17l1.82,1.37.91.69,1,.84a41.25,41.25,0,0,1,3.67,3.56,41.83,41.83,0,0,1,5.91,8.34,38.61,38.61,0,0,1,4.67,20,33.77,33.77,0,0,1-24.73,31.23,39,39,0,0,1-20.57,0,42.21,42.21,0,0,1-9.47-3.85,40,40,0,0,1-4.3-2.73c-.67-.5-1.37-1-2-1.55l-1.82-1.52q-7-5.77-14-11.64C785.51,1126.37,767.1,1110.5,749.29,1093.83Z"/>
  <path class="cls-7" d="M782.77,1040.81l-80.13-63.9-39.86,46.48,79.16,64.72c14.34,11.36,33.76,7.49,44.77-5.34h0C797.72,1069.93,797.17,1053,782.77,1040.81Z"/>
  <path class="cls-8" d="M747.35,1091.58a97,97,0,0,1-11.87-6.69c-1.89-1.24-3.76-2.5-5.6-3.8s-3.64-2.64-5.44-4c-7.14-5.44-14-11.24-20.49-17.33s-12.8-12.45-18.76-19.13a174.9,174.9,0,0,1-16.59-21.35,199.28,199.28,0,0,1,22,15.65q10.42,8.4,20.16,17.52t18.91,18.81C735.77,1077.79,741.68,1084.42,747.35,1091.58Z"/>
  <path d="M786.86,1043.49q-5.65-3.67-11.21-7.47l-5.56-3.78-5.51-3.85q-11-7.67-21.9-15.58l-10.84-7.92-10.77-8-10.72-8.08-10.67-8.14,6.59-.64-9.84,11.73-9.92,11.66-10,11.58-10.08,11.52-.42-6.66,10,9.29,10.1,9.29,20.24,18.5q10.15,9.22,20.43,18.29c7,5.91,13.76,12,21.45,17.08a88.28,88.28,0,0,1-12.26-6.42q-3-1.79-5.87-3.67c-1.93-1.26-3.83-2.56-5.74-3.86-7.61-5.19-15-10.68-22.3-16.28-3.65-2.81-7.25-5.67-10.85-8.53s-7.15-5.78-10.69-8.71q-10.62-8.79-21-17.89a4.7,4.7,0,0,1-.51-6.56l.09-.1,9.84-11.73,9.93-11.65,10-11.59L699,973.8l.09-.1a4.7,4.7,0,0,1,6.5-.54l10.39,8.5,10.33,8.57,10.28,8.64,10.22,8.71q10.17,8.76,20.2,17.72l5,4.47,5,4.54Q782,1038.82,786.86,1043.49Z"/>
  <path class="cls-10" d="M640,1016.08l79.93,64.2,51.71-58.69-79.93-64.2a39.13,39.13,0,0,0-55.21,3.49h0A39.12,39.12,0,0,0,640,1016.08Z"/>
  <path class="cls-11" d="M640,1016.08l79.93,64.2,51.71-58.69-79.93-64.2a39.13,39.13,0,0,0-55.21,3.49h0A39.12,39.12,0,0,0,640,1016.08Z"/>
  <g>
    <line class="cls-6" x1="419" y1="1209.95" x2="411.94" y2="1285.49"/>
    <path class="cls-7" d="M469.77,1370.82l-17.67-1.52a47.16,47.16,0,0,1-43-51l9.36-100.12a56,56,0,0,1,60.61-51.05h0a56,56,0,0,1,51,60.61l-9.36,100.12A47.16,47.16,0,0,1,469.77,1370.82Z"/>
    <rect class="cls-12" x="350.32" y="1284.66" width="170.06" height="88.55" rx="35.62" transform="translate(114.98 -32.3) rotate(4.89)"/>
    <path class="cls-4" d="M479.1,1167.12h0a56,56,0,0,0-60.61,51.05l-1.35,14.43s19.69-2.42,26.21-1.69c10.85,1.21,31.52,9.29,42.35,10.71s43.09.54,43.09.54l1.35-14.43A56,56,0,0,0,479.1,1167.12Z"/>
    <path class="cls-12" d="M416.19,1242.74l-7.06,75.55a47,47,0,0,0,10,33.25l86.17,7.38a47,47,0,0,0,15.49-31.07l7.07-75.54s-24.26,19.16-55.49,16.48C434.09,1265.51,416.19,1242.74,416.19,1242.74Z"/>
    <path d="M476.4,1377.68a86,86,0,0,0,13.39-6.41,58.23,58.23,0,0,0,11.38-8.73,44.69,44.69,0,0,0,4.58-5.27,41.21,41.21,0,0,0,3.67-5.82,46.5,46.5,0,0,0,4.45-12.86l-.09.52q1.23-16.71,2.91-33.38c1.15-11.11,2.38-22.21,3.85-33.29s3.09-22.13,4.94-33.17,3.93-22,6.5-33c.28,11.25.06,22.46-.39,33.64s-1.11,22.34-2,33.48-1.88,22.27-3,33.38-2.5,22.19-4,33.27l0,.41,0,.12a56.65,56.65,0,0,1-2.65,7.68,51.94,51.94,0,0,1-3.88,7.15,49,49,0,0,1-5,6.32,49.94,49.94,0,0,1-6,5.3,53.17,53.17,0,0,1-13.74,7.35A60.6,60.6,0,0,1,476.4,1377.68Z"/>
    <path d="M519.23,1336.91a43.14,43.14,0,0,1-5.19,20.5,44.63,44.63,0,0,1-6.32,8.87,43.26,43.26,0,0,1-8.35,7.2,45.34,45.34,0,0,1-20.95,7.45,46.71,46.71,0,0,1-5.67.19l-1.42,0L470,1381l-2.62-.15-10.44-.59q-20.89-1.27-41.76-2.9l-20.85-1.7-5.23-.47a48.39,48.39,0,0,1-5.75-.89,45.66,45.66,0,0,1-11-3.81,48.58,48.58,0,0,1-9.71-6.34,49.66,49.66,0,0,1-7.87-8.46,47.67,47.67,0,0,1-6.61-43.52,46.17,46.17,0,0,1,12-18.66,45.08,45.08,0,0,1,18.91-10.64,66.15,66.15,0,0,1,10.48-2.1,59.81,59.81,0,0,1,10.61-.31c14,.68,27.84,2.67,41.65,4.58-13.89-1.23-27.8-2.6-41.69-2.74a58.64,58.64,0,0,0-10.27.68q-2.53.4-5,1c-.83.19-1.65.42-2.47.65l-1.21.37-1.17.48a43.06,43.06,0,0,0-16.06,11.63,42.21,42.21,0,0,0-9,17.1,42.39,42.39,0,0,0-.51,19,42.52,42.52,0,0,0,2.93,9,43.6,43.6,0,0,0,4.89,8,40.31,40.31,0,0,0,14.43,11.54,39.54,39.54,0,0,0,8.78,2.92,41.44,41.44,0,0,0,4.58.68l5.2.43,20.84,1.86q20.83,2,41.64,4.25l10.4,1.19,2.6.3,1.3.15,1.19.12a40.3,40.3,0,0,0,4.79.19,41.5,41.5,0,0,0,18.59-4.94C508.2,1362.71,516.85,1350.73,519.23,1336.91Z"/>
  </g>
  <g>
    <line class="cls-6" x1="680.29" y1="1210.65" x2="687.66" y2="1286.16"/>
    <path class="cls-7" d="M630.17,1371.72l17.67-1.59a47.16,47.16,0,0,0,42.76-51.19l-9.77-100.08a56,56,0,0,0-60.82-50.8h0a56,56,0,0,0-50.8,60.82L579,1329A47.17,47.17,0,0,0,630.17,1371.72Z"/>
    <rect class="cls-12" x="579.39" y="1285.42" width="170.06" height="88.55" rx="35.62" transform="matrix(-1, 0.09, -0.09, -1, 1445.03, 2594.69)"/>
    <path class="cls-4" d="M620,1168.06h0a56,56,0,0,1,60.82,50.8l1.41,14.43s-15-2.76-21.54-2c-10.85,1.25-29.64,12.4-40.46,13.86s-49.37-6.59-49.37-6.59l-1.66-9.68A56,56,0,0,1,620,1168.06Z"/>
    <path class="cls-12" d="M683.23,1243.43l7.37,75.51a47,47,0,0,1-9.86,33.29L594.61,1360A47,47,0,0,1,579,1329l-7.37-75.51s24.34,19.06,55.56,16.25C665.42,1266.27,683.23,1243.43,683.23,1243.43Z"/>
    <path d="M623.56,1378.61a60.68,60.68,0,0,1-14.85-3.26,52.93,52.93,0,0,1-13.78-7.3,48.91,48.91,0,0,1-6-5.27,48.21,48.21,0,0,1-5.07-6.3,53,53,0,0,1-3.92-7.13,56.79,56.79,0,0,1-2.68-7.68l0-.11-.06-.41q-2.28-16.61-4.11-33.26c-1.19-11.11-2.3-22.22-3.17-33.36s-1.6-22.29-2.09-33.47-.75-22.39-.52-33.65c2.61,10.95,4.73,22,6.63,33s3.57,22.08,5.08,33.15,2.79,22.17,4,33.27,2.18,22.24,3,33.38l-.09-.53a46.23,46.23,0,0,0,4.5,12.85,40.24,40.24,0,0,0,3.7,5.79,44.77,44.77,0,0,0,4.6,5.26,57.83,57.83,0,0,0,11.41,8.68A86.87,86.87,0,0,0,623.56,1378.61Z"/>
    <path d="M580.57,1338c2.44,13.81,11.13,25.76,22.8,31.83A41.42,41.42,0,0,0,622,1374.7a40.31,40.31,0,0,0,4.79-.2l1.19-.12,1.3-.16,2.6-.31,10.4-1.23q20.79-2.39,41.62-4.42l20.83-2,5.19-.45a41.67,41.67,0,0,0,4.59-.7,39.39,39.39,0,0,0,23.14-14.56,43.28,43.28,0,0,0,4.86-8,42.34,42.34,0,0,0,2.9-9,42.8,42.8,0,0,0-.59-19,42.4,42.4,0,0,0-9.08-17.06A43,43,0,0,0,719.61,1286l-1.17-.48-1.21-.36c-.82-.23-1.65-.45-2.48-.64-1.66-.4-3.35-.72-5-1a58.63,58.63,0,0,0-10.27-.64c-13.89.2-27.79,1.62-41.68,2.91,13.81-2,27.63-4,41.63-4.75a60.74,60.74,0,0,1,10.61.26,67.06,67.06,0,0,1,10.49,2.06,45,45,0,0,1,19,10.57,46.1,46.1,0,0,1,12,18.61,47.64,47.64,0,0,1-6.44,43.54A47.41,47.41,0,0,1,727.54,1371a45.77,45.77,0,0,1-11,3.85,50.93,50.93,0,0,1-5.75.91l-5.23.49-20.84,1.79q-20.87,1.71-41.75,3.07l-10.44.63-2.62.16-1.3.08-1.42,0a48.58,48.58,0,0,1-5.66-.17,45.42,45.42,0,0,1-21-7.36,43.64,43.64,0,0,1-8.38-7.17,45,45,0,0,1-6.36-8.84A43.39,43.39,0,0,1,580.57,1338Z"/>
  </g>
  <path class="cls-10" d="M699,1221s-24.65,9.71-33,8.89c-4.63-.46-20.42-6.93-25.07-7-7.39,0-19.27,9.64-26.65,10-9.54.52-27.41-8.47-36.83-10-8.9-1.49-27-3-36.05-2.32-11.38.8-33.26,9.16-44.67,9.27-12.56.12-30.54-9.62-43.1-9.27-7.26.2-27.21,7-34.48,7-6.7-.07-25.86-7-25.86-7L420,945l25-10.15,94.82-17L641.72,933.3,668,942Z"/>
  <g>
    <path class="cls-13" d="M543,1029.92l-18,40.75,42.31-21.94s-16.91,26.14-27.85,45.84"/>
    <polygon class="cls-14" points="530.44 1113.77 532.34 1081.59 540.28 1093.24 554.33 1092.12 530.44 1113.77"/>
  </g>
  <path class="cls-15" d="M395.37,1218.71l18.31-179.59-8.34,180.32a5,5,0,1,1-10-.46A2.45,2.45,0,0,1,395.37,1218.71Z"/>
  <path class="cls-11" d="M691.87,1222.94s-17.52,7.77-25.86,7c-4.63-.46-20.42-6.93-25.07-7-7.39,0-19.27,9.64-26.65,10-9.54.52-27.41-8.47-36.83-10-8.9-1.49-27-3-36.05-2.32-11.38.8-33.26,9.16-44.67,9.27-12.56.12-30.54-9.62-43.1-9.27-7.26.2-27.21,7-34.48,7-6.7-.07-25.86-7-25.86-7l28.21-271.87L445,934.85l94.82-17L641.72,933.3l23.51,12.36Z"/>
  <path class="cls-16" d="M652.76,941.34s-32.91,65.83-111.44,64.26c-75.06-1.49-104.85-64.26-104.85-64.26S465,924.48,471,915.48c12.91-19.57,14.89-61.12,69.75-62.69,62.06-1.77,62,41.46,75.23,61.91C622.1,924.24,652.76,941.34,652.76,941.34Z"/>
  <g>
    <path class="cls-2" d="M333,744.14c-11.67-53.08-24.73-195.7,104.28-378.78,11.93,105.21,19.53,180.73,64.35,226.25a34.55,34.55,0,0,1,8.75,32.54C491.53,700.37,402.53,743,360.88,759.08A20.86,20.86,0,0,1,333,744.14Z"/>
    <path class="cls-17" d="M435.69,367.71s-48.59,70.53-7.06,225.69"/>
    <path class="cls-18" d="M437.25,364.57q-13.12,18.65-24.34,36.7c5,5,11.27,8,18.07,8a23.79,23.79,0,0,0,11.08-2.78C440.47,393.06,438.9,379.1,437.25,364.57Z"/>
    <path class="cls-17" d="M419.88,390.92S293.06,580.86,340.08,747"/>
    <path class="cls-11" d="M333,741.78C321.3,688.71,308.24,546.08,437.25,363c11.93,105.22,19.53,180.74,64.35,226.26a34.55,34.55,0,0,1,8.75,32.54C491.53,698,402.53,740.65,360.88,756.73A20.86,20.86,0,0,1,333,741.78Z"/>
    <path class="cls-19" d="M420.8,391.22s-40,109.71,7.05,206.88c-13.32,11.76-56.42-11-52.51-71.31S420.8,391.22,420.8,391.22Z"/>
    <path class="cls-11" d="M436.47,363.79s-60.34,73.66-10.19,232.74"/>
  </g>
  <g>
    <path class="cls-2" d="M774.73,743.35c11.67-53.08,24.74-195.7-104.28-378.78-11.93,105.22-19.52,180.74-64.34,226.26a34.52,34.52,0,0,0-8.75,32.54c18.81,76.22,107.82,118.85,149.46,134.93A20.86,20.86,0,0,0,774.73,743.35Z"/>
    <path class="cls-17" d="M669.22,384.16s7.83,130.09-48.92,193.57"/>
    <path class="cls-18" d="M670.45,363.79q13.14,18.63,24.35,36.7c-5,5-11.28,8-18.08,8a23.76,23.76,0,0,1-11.07-2.79C667.24,392.28,668.8,378.32,670.45,363.79Z"/>
    <path class="cls-11" d="M774.73,741c11.67-53.08,24.74-195.7-104.28-378.78C658.52,467.43,650.93,543,606.11,588.48A34.5,34.5,0,0,0,597.36,621C616.17,697.24,705.18,739.87,746.82,756A20.86,20.86,0,0,0,774.73,741Z"/>
    <path class="cls-19" d="M686.91,390.43s40,109.71-7,206.89c13.32,11.75,56.42-11,52.5-71.31S686.91,390.43,686.91,390.43Z"/>
    <path class="cls-11" d="M671.24,363s60.34,73.67,10.18,232.75"/>
  </g>
  <path class="cls-2" d="M795.82,783.92s-50,85.8-97,112.18c-79.88,44.77-152.33,40.15-152.33,40.15s-101.53-1.44-158.79-46.83c-27.41-21.72-87.9-108.82-87.9-108.82s24.7-33.69,30.5-46.27c5.89-12.78,10.14-41.13,15.61-54.09,22.25-52.76,105.66-113,201.27-114.66,91.68-1.61,177.13,60,202.31,113.39,6.61,14,13.3,44.63,19.67,58.75C774.6,749.88,795.82,783.92,795.82,783.92Z"/>
  <path class="cls-3" d="M796.6,783.92s-1.21-1.94-3.13-5.06c-10.78.65-26,3.84-43.1,8.25C723,794.2,672.8,798.18,672.8,798.18s-69,3.21-99.55-17.12-45.46-5.43-63.47,3.21-67.38,12.62-80.7,11.85-72.9-10.89-109.74-19.46a141.36,141.36,0,0,0-14.11-2.55c-2.83,3.95-4.69,6.49-4.69,6.49s60.49,87.1,87.9,108.82c57.26,45.39,158.79,46.83,158.79,46.83s72.45,4.62,152.33-40.15C746.65,869.72,796.6,783.92,796.6,783.92Z"/>
  <path d="M569.69,794.8c0,10-11.1,20.77-26.25,20.77s-26.65-11.21-26.65-21.16,3.91-11,25.86-11C557.54,783.44,569.69,783.83,569.69,794.8Z"/>
  <path class="cls-5" d="M299.85,779.09c5-7.06,10-14,15-20.92l7.55-10.39,1.89-2.6.89-1.25c.29-.39.56-.81.83-1.22a44.39,44.39,0,0,0,2.88-5.32c3.42-7.49,5.58-15.81,7.75-24.06s4.17-16.61,6.47-24.86c-1.47,8.44-2.66,16.9-3.95,25.38s-2.63,17-5.49,25.46a46.92,46.92,0,0,1-2.62,6.26c-.26.51-.52,1-.82,1.53l-.43.75-.41.69-1.64,2.76-6.54,11.05c-4.34,7.36-8.72,14.75-12.95,22.1l0,0a5,5,0,1,1-8.68-5C299.67,779.35,299.76,779.21,299.85,779.09Z"/>
  <path class="cls-5" d="M787.08,785.08c-.38-.81-.88-1.83-1.34-2.75l-1.43-2.83-2.9-5.68-5.9-11.35-6-11.33a78,78,0,0,1-5.17-12.2,232.08,232.08,0,0,1-6.54-25c-1.8-8.38-3.34-16.78-4.85-25.19,2.3,8.23,4.63,16.44,7.2,24.57a232.51,232.51,0,0,0,8.73,23.84A71.43,71.43,0,0,0,774.79,748l7.1,10.69,7,10.74,3.5,5.4,1.74,2.73c.59.94,1.13,1.78,1.76,2.85a5,5,0,0,1-8.61,5.12,5.06,5.06,0,0,1-.24-.46Z"/>
  <path d="M749.45,679a125.27,125.27,0,0,1,5.48,13.36c1.62,4.54,3.13,9.11,4.62,13.69,3,9.14,5.76,18.37,9.33,27.18.89,2.2,1.89,4.31,3,6.41s2.27,4.17,3.46,6.25c2.38,4.14,4.86,8.24,7.37,12.33,5,8.19,10.19,16.28,15.35,24.36l.83,1.3-.79,1.39c-6.47,11.26-13.36,22.15-20.57,32.89s-14.83,21.21-22.94,31.33a309.91,309.91,0,0,1-26.09,29.06,172.65,172.65,0,0,1-14.92,12.93c-1.34,1-2.64,2-4,3l-4.15,2.8-4.32,2.62-4.31,2.31-8.62,4.61L686,907.91l-2.2,1L679.35,911c-3,1.38-5.89,2.81-8.87,4.13l-9,3.73-4.53,1.86-4.6,1.65-9.21,3.3-9.36,2.86L629.05,930l-4.73,1.23-4.74,1.22c-1.58.41-3.16.84-4.76,1.16l-9.56,2.08c-3.21.63-6.43,1.17-9.64,1.75l-2.41.43-2.43.34-4.85.7a241,241,0,0,1-39.31,2.39l-4.83-.18-4.9-.27c-3.25-.21-6.5-.45-9.74-.75q-9.72-.86-19.39-2.18a389.3,389.3,0,0,1-38.39-7.16A274.76,274.76,0,0,1,432,919.07a198.73,198.73,0,0,1-35.18-17.76c-1.38-.91-2.73-1.87-4.1-2.8l-2.05-1.41-2-1.5c-1.31-1-2.65-2-4-3l-3.79-3.35c-.62-.56-1.28-1.11-1.87-1.69l-1.75-1.75-3.47-3.52c-2.28-2.37-4.4-4.83-6.61-7.23-8.58-9.79-16.61-19.91-24.5-30.13-3.94-5.11-7.8-10.27-11.65-15.44s-7.6-10.42-11.34-15.66c-7.48-10.5-14.85-21-22.08-31.73l-1-1.54,1.08-1.44c5.59-7.4,11.13-14.89,16.5-22.47,2.68-3.79,5.32-7.61,7.87-11.48,1.28-1.93,2.51-3.88,3.72-5.84l1.75-3c.53-1,1.09-2,1.57-3a95.56,95.56,0,0,0,4.67-12.94c1.33-4.45,2.54-9,3.74-13.45s2.43-9,3.75-13.48a109.24,109.24,0,0,1,4.61-13.21A109.66,109.66,0,0,0,342,693.65c-1.06,4.53-2,9.09-3,13.66s-2,9.11-3.11,13.66a99.23,99.23,0,0,1-4.18,13.55A105.9,105.9,0,0,1,325,747q-3.64,6-7.48,11.88c-5.12,7.83-10.33,15.57-15.73,23.22l0-3q22.56,31.15,46.61,61.23c8,10,16.23,19.81,24.82,29.17,2.19,2.29,4.32,4.65,6.55,6.87l3.36,3.28,1.68,1.65c.56.53,1.15,1,1.73,1.51l3.47,3c1.21,1,2.49,1.86,3.73,2.79l1.88,1.39,1.94,1.3c1.31.86,2.59,1.74,3.9,2.58a189.71,189.71,0,0,0,33.79,16.49c2.93,1.16,5.94,2.15,8.91,3.19,1.5.51,3,1,4.51,1.45s3,1,4.53,1.39c6,1.87,12.19,3.43,18.34,4.92,12.34,2.9,24.86,5.15,37.45,6.81q9.45,1.25,18.94,2.05c3.17.27,6.33.49,9.49.68l4.74.24,4.8.16c6.16.25,12.47,0,18.76-.3s12.58-1,18.85-1.85l4.7-.65,2.34-.33,2.34-.4c3.12-.55,6.24-1.06,9.35-1.65l9.28-2c1.56-.3,3.09-.71,4.62-1.1l4.6-1.17,4.61-1.17,4.55-1.35,9.1-2.74,9-3.08L653.6,912l4.42-1.75,8.83-3.5c2.91-1.25,5.78-2.61,8.67-3.9l4.33-2,2.16-1,2.11-1.1,8.45-4.37,4.21-2.19,4-2.33,3.87-2.55c1.29-.86,2.53-1.81,3.79-2.71,5-3.73,9.78-7.8,14.43-12.06a302.92,302.92,0,0,0,26-27.75q6.14-7.32,11.95-14.94c3.87-5.07,7.72-10.18,11.44-15.38,7.45-10.38,14.64-21,21.32-31.87l0,2.69c-5-8.27-9.78-16.6-14.51-25-2.35-4.21-4.69-8.43-6.93-12.71-1.12-2.15-2.22-4.31-3.28-6.5a70.59,70.59,0,0,1-2.8-6.81c-3.23-9.19-5.56-18.52-8.1-27.79-1.25-4.64-2.48-9.29-3.84-13.9A125.69,125.69,0,0,0,749.45,679Z"/>
  <path class="cls-20" d="M550.15,789.31s7.83-1.57,12.54,4.69"/>
  <path d="M467.48,581.31q2.88-1.48,5.83-2.87c2-.89,3.94-1.78,5.95-2.61,4-1.72,8.06-3.19,12.17-4.63a205.7,205.7,0,0,1,25.24-6.72,191.21,191.21,0,0,1,103.63,7.79,189.45,189.45,0,0,1,46.09,24.08A415.18,415.18,0,0,0,618,579.78a262.39,262.39,0,0,0-100.08-7.56c-8.42.92-16.81,2.19-25.21,3.72-4.19.78-8.38,1.61-12.58,2.52-2.1.43-4.19.92-6.29,1.41S469.6,580.86,467.48,581.31Z"/>
  <g>
    <ellipse cx="473.69" cy="717.61" rx="30.95" ry="35.66"/>
    <circle class="cls-21" cx="485.06" cy="706.25" r="8.62"/>
  </g>
  <g>
    <ellipse cx="620.24" cy="717.61" rx="30.95" ry="35.66"/>
    <circle class="cls-21" cx="631.6" cy="706.25" r="8.62"/>
  </g>
  <g>
    <path class="cls-22" d="M543.83,810.47v19.6s-3.13,7.83-11,7.83-26.65-5.48-26.65-5.48"/>
    <path class="cls-22" d="M584.58,832.42s-18.76,6.27-25.08,6.27-15.45-2-15.56-9.25"/>
  </g>
  <path class="cls-5" d="M581.11,568.41a170.16,170.16,0,0,0-35.05-2.22,204.72,204.72,0,0,0-34.76,4.26c-5.7,1.2-31.44,7.6-34.08,8.84,11.51-1.65,23.51-3.13,35-2.77a6.53,6.53,0,0,0,1-.11c4.82,7.3,16.56,12.29,29.81,12.29,14.7,0,27.34-6.16,31-14.54q3.13.15,6.27.37c5.67.36,31.41,2.87,37.14,4C614.9,577.2,586.9,569.39,581.11,568.41Z"/>
  <polygon class="cls-15" points="351.25 1021.08 416.09 956.23 358.69 1027.75 355.56 1031.65 347.7 1024.62 351.25 1021.08"/>
</svg>
