<svg id="Layer_7" data-name="Layer 7" xmlns="http://www.w3.org/2000/svg" viewBox="0 0 1080 1920">
  <defs>
    <style>
      .cls-1, .cls-5 {
        fill: #f5a64a;
      }

      .cls-1, .cls-2, .cls-3, .cls-4, .cls-5, .cls-6 {
        stroke: #000;
      }

      .cls-1, .cls-2, .cls-3, .cls-4, .cls-5 {
        stroke-miterlimit: 10;
      }

      .cls-1, .cls-2, .cls-3, .cls-4 {
        stroke-width: 6px;
      }

      .cls-2 {
        fill: #4d1012;
      }

      .cls-3 {
        fill: #83191b;
      }

      .cls-4, .cls-6 {
        fill: none;
      }

      .cls-5, .cls-6 {
        stroke-width: 4px;
      }

      .cls-6 {
        stroke-linecap: round;
        stroke-linejoin: round;
      }

      .cls-7 {
        fill: #c2272a;
      }
    </style>
  </defs>
  <title>FV_new_ForeArm_Left</title>
  <g>
    <g>
      <path class="cls-1" d="M850.54,1082.94l-59-50.64s-16-14.37-35.52,4.21c-21.21,20.15-7.77,39.39-7.77,39.39l59,50.64c11.91,11.23,31.26,10.57,43.21-1.47h0C862.42,1113,862.45,1094.17,850.54,1082.94Z"/>
      <path class="cls-2" d="M851,1134.24s21.68,24.34,18.58,26.36-15.48,13.18-29.93,11.15-55.74-20.27-59.87-29.4S827.24,1114,827.24,1114Z"/>
      <path class="cls-3" d="M830.34,1076.46c-5.85-7.38-14.28-9-34.07,19.26-11.35,16.22-20.64,15.21-20.64,15.21s-7.34,7.14-5.16,14.19c1.75,5.7,11.28,12.19,23.74,8.11C822.08,1124.11,844.79,1094.71,830.34,1076.46Z"/>
      <path class="cls-3" d="M829.3,1063.28c19.63,3.4,47.49,28.38,52.65,58.8,2.32,13.68.46,22.85-2.29,28.8a15.21,15.21,0,0,1-16.6,8.33c-13.92-2.56-40.68-8.8-48.21-19.9-10.32-15.2,5.16-34.47,5.16-34.47s-16.51-20.27-11.35-29.4S823.38,1062.25,829.3,1063.28Z"/>
      <path class="cls-4" d="M828.27,1147.42s-17,15.12-21.91,12.63"/>
      <path class="cls-4" d="M854.08,1155.53s-24.1,14.54-27,12.34"/>
      <path class="cls-5" d="M862.33,1155.53s4.93-13.7-14.56-21.55-26.72,8.37-26.72,8.37S836.53,1160.6,862.33,1155.53Z"/>
      <path class="cls-6" d="M851,1154.52s-2.24-7-8.26-9.12c-3.27-1.15-7.6-1.61-13.42,3"/>
    </g>
    <path class="cls-7" d="M843.91,1085.25s21,18.58,23.28,36.54c-2.42-1.47-7.75-2.24-7.75-2.24S859.73,1112.28,843.91,1085.25Z"/>
  </g>
</svg>
