<svg id="Layer_9" data-name="Layer 9" xmlns="http://www.w3.org/2000/svg" viewBox="0 0 1080 1920">
  <defs>
    <style>
      .cls-1 {
        fill: #83191b;
      }

      .cls-1, .cls-2, .cls-3, .cls-4, .cls-5, .cls-6, .cls-7, .cls-8 {
        stroke: #000;
      }

      .cls-1, .cls-3, .cls-5, .cls-6, .cls-8 {
        stroke-miterlimit: 10;
      }

      .cls-1, .cls-6 {
        stroke-width: 6px;
      }

      .cls-2, .cls-4 {
        fill: none;
      }

      .cls-2, .cls-4, .cls-7 {
        stroke-linecap: round;
        stroke-linejoin: round;
      }

      .cls-2, .cls-3, .cls-5, .cls-7 {
        stroke-width: 4px;
      }

      .cls-3 {
        fill: #f5a64a;
      }

      .cls-4, .cls-8 {
        stroke-width: 3px;
      }

      .cls-5, .cls-6, .cls-8 {
        fill: #4d1012;
      }

      .cls-7 {
        fill: #89c3d3;
      }

      .cls-9 {
        fill: #c2272a;
      }
    </style>
  </defs>
  <title>FV_new_LEG_Left</title>
  <g>
    <path class="cls-1" d="M578.94,1372l65,13,98-16-29-128c-5.46-31-43.15-53.55-74.58-53h0c-29.09.56-60.68,20.64-67.42,49l-19.89,111.9C549.86,1358.54,569.42,1370.09,578.94,1372Z"/>
    <path class="cls-1" d="M764.94,1359c.3,19.14-30,32-76,33s-99-15-112-22c-5.13-2.76,8.78-94.09,84-98C737.94,1268,763.94,1295,764.94,1359Z"/>
    <path class="cls-2" d="M712.94,1278s-42-1-70,13-45.37,63.86-45.37,63.86"/>
    <path class="cls-2" d="M761.94,1350s-13,23-70,22-112.88-22.54-112.88-22.54"/>
    <ellipse class="cls-3" cx="590.44" cy="1255" rx="18" ry="13.5" transform="translate(-783.36 1445.52) rotate(-72.7)"/>
    <path class="cls-3" d="M743.94,1380l-8-27.6a14.42,14.42,0,0,0-13.85-10.4H691.67a14.41,14.41,0,0,0-13.8,10.28l-11.64,38.83s33.12,1.75,44,0C719,1389.71,743.94,1380,743.94,1380Z"/>
    <path class="cls-4" d="M598.86,1240.17s6.08,18.83-12.92,29.83"/>
    <polyline class="cls-2" points="728.72 1367.2 723.95 1353 692.95 1354 687.95 1375 714.06 1373.37"/>
    <path class="cls-5" d="M699.94,1260l-4-17s-25.76-1.48-34-1l-34,2,3,20s24.92-5.6,33-6C673,1257.55,699.94,1260,699.94,1260Z"/>
    <path class="cls-6" d="M672.94,1197s14,17,12,29-53,11-57,8-21.54-33.69-17.77-39.34S656.94,1182,672.94,1197Z"/>
    <path class="cls-3" d="M675.94,1231s-3.28-34.66-9-39-24-6-24-6-22.08,1.6-24.54,4.8,10.54,14.2,12.54,22.2,3.92,21.51,3.92,21.51S665.94,1238,675.94,1231Z"/>
    <path class="cls-7" d="M685.26,1243.26l2.68,14.74s-18-.38-24,0c-5.37.34-21.37,2.74-21.37,2.74l-2.05-15.94s17.71-2.39,23.65-2.57C669.45,1242.07,685.26,1243.26,685.26,1243.26Z"/>
    <path class="cls-4" d="M572.44,1296.5c0,1-8,37-8,37"/>
    <line class="cls-4" x1="630.44" y1="1341.5" x2="626.44" y2="1353.5"/>
    <line class="cls-4" x1="623.44" y1="1329.5" x2="615.44" y2="1350.5"/>
    <line class="cls-4" x1="649.44" y1="1245.5" x2="651.44" y2="1257.5"/>
    <ellipse class="cls-8" cx="650.94" cy="1197.5" rx="8.5" ry="5"/>
    <ellipse class="cls-8" cx="656.44" cy="1219" rx="8.5" ry="5"/>
    <path class="cls-9" d="M641,1330l-14-5s5.71-24.6,31.86-31.8C639,1317,641,1330,641,1330Z"/>
    <path class="cls-9" d="M570,1350l-9-4s11-55,19-63C575,1317,570,1350,570,1350Z"/>
  </g>
</svg>
