<svg id="Layer_2" data-name="Layer 2" xmlns="http://www.w3.org/2000/svg" viewBox="0 0 1080 1920">
  <defs>
    <style>
      .cls-1 {
        fill: #82191b;
      }

      .cls-2, .cls-4 {
        fill: none;
        stroke-linecap: round;
        stroke-linejoin: round;
      }

      .cls-2, .cls-3, .cls-4 {
        stroke: #000;
      }

      .cls-2 {
        stroke-width: 8px;
      }

      .cls-3 {
        fill: #f5a64a;
        stroke-miterlimit: 10;
        stroke-width: 7px;
      }

      .cls-4 {
        stroke-width: 4px;
      }

      .cls-5 {
        fill: #c2272a;
      }

      .cls-6 {
        fill: #6ab1ca;
        opacity: 0.6;
      }

      .cls-7 {
        fill: #fff;
        opacity: 0.4;
      }
    </style>
  </defs>
  <title>FV_new_Helmet_Face_front</title>
  <path class="cls-1" d="M289.9,659c-2.13,11.5.1,19,.1,19s157-58.17,261.4-56.32C683,624,812,670,812,670s3,0,0-24c-11-9-30-20-30-20l-88.35-44.65L609,551s-95.38-5.18-105-3c-15.44,3.49-72.63,23.37-87,30-17.26,8-50.78,26.08-67,36C334,623.79,291,653,289.9,659Z"/>
  <path class="cls-2" d="M511.92,546.68C491,551,474.77,555.78,434,571c-29.1,10.86-116,60-142,88m519-13c-28-21-85.79-50-125.35-66.56C656,567,614,552,603,545.9"/>
  <path class="cls-3" d="M494.66,508.24,524.86,622l69.52-1.07,24.18-113c2.36-11-5-21.86-17.28-25.27-12.08-3.37-28.11-6.64-44.71-6.64-16,0-31.69,2.8-43.88,5.78C499.54,485,491.58,496.62,494.66,508.24Z"/>
  <path class="cls-4" d="M607.31,487.06S592.32,497,585,591"/>
  <path class="cls-4" d="M505.7,488.09s20.48,34.79,27.38,102.84C534,600,532,606,578,603"/>
  <polygon class="cls-5" points="689 604 686 615 727 619 689 604"/>
  <polygon class="cls-5" points="622 582 616 609 675 615 679 601 622 582"/>
  <polygon class="cls-5" points="466 580 468 609 490 608 487.26 572.09 466 580"/>
  <polygon class="cls-5" points="437 593 439.26 615.63 458.8 611.51 456 583 437 593"/>
  <polygon class="cls-5" points="346 638 425 598 428 618 346 638"/>
  <g>
    <path class="cls-6" d="M816,674s-135.91-52.78-263-51c-143,2-260,58-260,58s0,76,9,102c36-6,145-15.22,243-17,110-2,216,17,256,23C819,730,816,674,816,674Z"/>
    <path class="cls-2" d="M814,673s-135.91-52.78-263-51c-143,2-260,58-260,58s0,76,9,102c36-6,145-15.22,243-17,110-2,216,17,256,23C817,729,814,673,814,673Z"/>
    <polygon class="cls-7" points="358 768 406 713 384 763 358 768"/>
    <polygon class="cls-7" points="397 662 354 753 436 652 397 662"/>
  </g>
</svg>
