<svg id="Layer_4" data-name="Layer 4" xmlns="http://www.w3.org/2000/svg" viewBox="0 0 1080 1920">
  <defs>
    <style>
      .cls-1, .cls-5 {
        fill: #f5a64a;
      }

      .cls-1, .cls-2, .cls-3, .cls-4, .cls-5, .cls-6 {
        stroke: #000;
      }

      .cls-1, .cls-2, .cls-3, .cls-4, .cls-5 {
        stroke-miterlimit: 10;
      }

      .cls-1, .cls-2, .cls-3, .cls-4 {
        stroke-width: 6px;
      }

      .cls-2 {
        fill: #4d1012;
      }

      .cls-3 {
        fill: #83191b;
      }

      .cls-4, .cls-6 {
        fill: none;
      }

      .cls-5, .cls-6 {
        stroke-width: 4px;
      }

      .cls-6 {
        stroke-linecap: round;
        stroke-linejoin: round;
      }

      .cls-7 {
        fill: #c2272a;
      }
    </style>
  </defs>
  <title>FV_new_ForeArm_Right</title>
  <g>
    <g>
      <path class="cls-1" d="M243.2,1094.05l60.95-49.76s16.48-14.16,35.57,5.37c20.69,21.16,6.58,40.35,6.58,40.35l-60.94,49.77c-12.33,11.07-31.75,9.81-43.4-2.81h0C230.32,1124.34,230.87,1105.13,243.2,1094.05Z"/>
      <path class="cls-2" d="M241.15,1146.3s-22.55,24.11-19.5,26.27,15.16,13.9,29.75,12.28,56.66-18.95,61.1-28.12-46.85-30.36-46.85-30.36Z"/>
      <path class="cls-3" d="M263.71,1088.07c6.11-7.33,14.64-8.74,33.65,20.66,10.9,16.87,20.27,16.12,20.27,16.12s7.15,7.5,4.75,14.61c-1.94,5.75-11.72,12.07-24.12,7.54C270.53,1136.85,248.62,1106.22,263.71,1088.07Z"/>
      <path class="cls-3" d="M265.16,1074.68c-19.83,2.87-48.62,27.46-54.76,58.28-2.76,13.87-1.18,23.26,1.4,29.4a15.23,15.23,0,0,0,16.43,9c14.07-2.18,41.17-7.72,49.08-18.79,10.86-15.17-4.11-35.26-4.11-35.26s17.24-20.15,12.34-29.6S271.15,1073.81,265.16,1074.68Z"/>
      <path class="cls-4" d="M263.57,1160.41s16.61,15.92,21.64,13.53"/>
      <path class="cls-4" d="M237.38,1167.88s23.76,15.55,26.77,13.4"/>
      <path class="cls-5" d="M229.07,1167.63s-4.52-14.1,15.32-21.5,26.6,9.34,26.6,9.34S254.86,1173.58,229.07,1167.63Z"/>
      <path class="cls-6" d="M240.52,1167s2.48-7.08,8.59-9c3.32-1.07,7.69-1.4,13.39,3.5"/>
    </g>
    <path class="cls-7" d="M247.44,1091.79s-21.78,17.62-24.89,35.46c2.48-1.36,7.84-1.88,7.84-1.88S230.42,1118.09,247.44,1091.79Z"/>
  </g>
</svg>
