<svg id="Layer_5" data-name="Layer 5" xmlns="http://www.w3.org/2000/svg" viewBox="0 0 1080 1920">
  <defs>
    <style>
      .cls-1, .cls-9 {
        fill: #4d1012;
      }

      .cls-1, .cls-2, .cls-3, .cls-5, .cls-6, .cls-7, .cls-8 {
        stroke: #000;
      }

      .cls-1, .cls-2, .cls-5, .cls-6, .cls-8 {
        stroke-miterlimit: 10;
      }

      .cls-1, .cls-2, .cls-3 {
        stroke-width: 6px;
      }

      .cls-2 {
        fill: #83191b;
      }

      .cls-3 {
        fill: #89c3d3;
      }

      .cls-3, .cls-7 {
        stroke-linecap: round;
        stroke-linejoin: round;
      }

      .cls-4 {
        fill: #c2272a;
      }

      .cls-5, .cls-6 {
        fill: #f5a64a;
      }

      .cls-5 {
        stroke-width: 7px;
      }

      .cls-6, .cls-7, .cls-8 {
        stroke-width: 4px;
      }

      .cls-7, .cls-8 {
        fill: none;
      }
    </style>
  </defs>
  <title>FV_new_Body</title>
  <path class="cls-1" d="M438,1154l5,16s64-8,97-9,106,7,106,7l3-19-99.69-7.77Z"/>
  <path class="cls-2" d="M449.42,934.61l-44.27,11.47a18.48,18.48,0,0,0-13.79,19.51L401.48,1082A114.9,114.9,0,0,0,420,1135.29l2.14,3.25a29.62,29.62,0,0,0,25,13.33L546,1142l90.62,8.2a51.59,51.59,0,0,0,37.52-16.68l4-8.15A122.27,122.27,0,0,0,690,1082.44l10-114.92a25.12,25.12,0,0,0-20.08-25.82l-38.69-7.89s-44.18,23.47-81.69,24C502.56,958.57,449.42,934.61,449.42,934.61Z"/>
  <path class="cls-3" d="M481,983.92,461,1040s43,32,45,50.1c2.13,19.27,70,13.85,74,6.47s20-42.48,52-57.25c0-4.62-22-56.32-22-56.32s-31,8.31-64,7.39A520.8,520.8,0,0,1,481,983.92Z"/>
  <path class="cls-4" d="M399.14,970.49,403,986l18-16-15.69,4.6C400,971,399.14,970.49,399.14,970.49Z"/>
  <polygon class="cls-4" points="606 1064 613 1071 665 1057 675 1048 606 1064"/>
  <polygon class="cls-4" points="406.34 1044.54 422 1061 480 1081 406.34 1044.54"/>
  <path class="cls-5" d="M442,923l-3.77,16.63S482,972,546,968s106-27,106-27l-3.94-20.91S570,938,548,938,442,923,442,923Z"/>
  <path class="cls-6" d="M681.7,1106.4s-19.57-11.4-44.57,6.6-24.34,30.43-24.34,30.43,28,7.43,42.17,0S681.7,1106.4,681.7,1106.4Z"/>
  <polygon class="cls-6" points="666.13 1101 689.93 1054.97 688.9 1085.83 682.13 1106 666.13 1101"/>
  <path class="cls-7" d="M672.45,1123.89s-8.32-5.89-23.32,1.11-23,20.49-23,20.49"/>
  <path class="cls-8" d="M498,1074s48,19,96-3"/>
  <polyline class="cls-8" points="683.92 1048.34 669.66 1060.7 607.34 1078.42 592 1072"/>
  <path class="cls-6" d="M409.43,1111.4S429,1100,454,1118s24.34,30.43,24.34,30.43-28,7.43-42.17,0S409.43,1111.4,409.43,1111.4Z"/>
  <polygon class="cls-6" points="425 1106 401.2 1059.97 402.23 1090.83 409 1111 425 1106"/>
  <path class="cls-7" d="M418.69,1128.89S427,1123,442,1130s23,20.49,23,20.49"/>
  <polygon class="cls-1" points="510.23 1099.06 516 1142 546 1142 570.91 1143.29 580.17 1099.06 544.17 1105.23 510.23 1099.06"/>
  <polyline class="cls-8" points="407.21 1053.34 421.47 1065.7 483.79 1083.42 500.93 1073.66"/>
  <path class="cls-7" d="M619.23,955.06S688,983,692,1023"/>
  <polyline class="cls-7" points="514.34 1120.66 541 1127 575.03 1120.66"/>
  <path class="cls-7" d="M465,955.06S412,976,399,1017"/>
  <path class="cls-7" d="M569,948s62-9,73-17"/>
  <path class="cls-7" d="M502,948.89S519,954,526,953"/>
  <line class="cls-7" x1="489" y1="961" x2="491" y2="940"/>
  <polyline class="cls-7" points="457.77 926.26 480 939 478 955"/>
  <g>
    <path class="cls-2" d="M438.52,1165.4s-26,16-24,47.17c.32,5,5.14,13.88,16,16.83,56.23,15.31,236,7.58,240-10.94,3.68-17-2-48.18-23-51.11s-70.77-7.8-94-7.8C513.52,1159.55,438.52,1165.4,438.52,1165.4Z"/>
    <path class="cls-4" d="M442.52,1195.74l-16,3.37s5-19.36,13-25.25A94.94,94.94,0,0,0,442.52,1195.74Z"/>
    <polygon class="cls-6" points="594.03 1163.66 588.52 1177.22 600.52 1175.54 605.35 1164.53 594.03 1163.66"/>
    <polygon class="cls-6" points="472.66 1164.53 476.52 1178.07 489.52 1178.91 488.09 1164.53 472.66 1164.53"/>
    <polygon class="cls-6" points="513.52 1172.17 520.52 1200.79 568.52 1199.95 579.52 1173.02 513.52 1172.17"/>
    <line class="cls-7" x1="569.52" y1="1191.53" x2="536.52" y2="1192.37"/>
    <line class="cls-7" x1="572.52" y1="1183.96" x2="548.52" y2="1184.8"/>
    <path class="cls-9" d="M415.52,1204.16c2-2.53,33-14.31,66-5.05s41,12.62,61,11.78,74-16.83,100-12.63,29,9.26,29,9.26L670,1216.2c-.85,4.77-5.51,8.41-11.22,8.78,0,0-60.82,7.38-81.23,8.63-25.18,1.55-79.55,1.33-101,0-11.15-.69-44-6.82-44-6.82-7.61-.44-13.83-5.26-15-11.6Z"/>
  </g>
</svg>
