<svg id="Layer_3" data-name="Layer 3" xmlns="http://www.w3.org/2000/svg" viewBox="0 0 1080 1920">
  <defs>
    <style>
      .cls-1 {
        fill: #4d1012;
      }

      .cls-1, .cls-2, .cls-3 {
        stroke: #000;
        stroke-miterlimit: 10;
      }

      .cls-1, .cls-2 {
        stroke-width: 6px;
      }

      .cls-2 {
        fill: #83191b;
      }

      .cls-3 {
        fill: #f5a64a;
        stroke-width: 4px;
      }

      .cls-4 {
        fill: #c2272a;
      }
    </style>
  </defs>
  <title>FV_new_Arm_Right</title>
  <g>
    <path class="cls-1" d="M444.19,1026.41,400,1072.86c-18.93,17.56-39.7,25.28-64.19,17.12l-40.65-22.47,81.3-113.39c17-13.82,63.89-6.87,77.72,10.1h0C468,981.2,461.17,1012.58,444.19,1026.41Z"/>
    <g>
      <path class="cls-2" d="M310.13,958.4c-12.65,9.87-29.95,36.37-34.23,72.74-3,25.64,13.8,41.51,33.16,40.65,9.61-.42,34.45-4.42,48.59-6.8a14.81,14.81,0,0,0,12.09-11.76c2.91-14.85,9.09-43.07,17.41-62.74,8.53-20.16,30-42.79,30-42.79C397,939,354,924.17,310.13,958.4Z"/>
      <polygon class="cls-3" points="300.04 970.05 347.57 974.45 352.92 959.47 311.6 956.84 300.04 970.05"/>
      <path class="cls-3" d="M326.17,1068.58l27.24-2.81s8.07-26.07-9.05-23.93S326.17,1068.58,326.17,1068.58Z"/>
      <polygon class="cls-3" points="281.78 1004.93 337.41 1007.07 342.75 991.03 289.27 988.89 281.78 1004.93"/>
    </g>
    <path class="cls-4" d="M294,1047.46l-3,6.54c2,2,8.15,6.22,10,6,2-1,4.14-8.11,4.14-8.11S298,1052,294,1047.46Z"/>
    <path class="cls-4" d="M292,1043c-3-11-2-27-2-27s-10.15,25.4-2.41,34.9l4.6-7.28C292.12,1043.41,292.06,1043.21,292,1043Z"/>
  </g>
</svg>
