<svg id="Layer_8" data-name="Layer 8" xmlns="http://www.w3.org/2000/svg" viewBox="0 0 1080 1920">
  <defs>
    <style>
      .cls-1 {
        fill: #83191b;
      }

      .cls-1, .cls-2, .cls-3, .cls-4, .cls-5, .cls-6, .cls-7, .cls-8 {
        stroke: #000;
      }

      .cls-1, .cls-3, .cls-5, .cls-6, .cls-8 {
        stroke-miterlimit: 10;
      }

      .cls-1, .cls-6 {
        stroke-width: 6px;
      }

      .cls-2, .cls-4 {
        fill: none;
      }

      .cls-2, .cls-4, .cls-7 {
        stroke-linecap: round;
        stroke-linejoin: round;
      }

      .cls-2, .cls-3, .cls-5, .cls-7 {
        stroke-width: 4px;
      }

      .cls-3 {
        fill: #f5a64a;
      }

      .cls-4, .cls-8 {
        stroke-width: 3px;
      }

      .cls-5, .cls-6, .cls-8 {
        fill: #4d1012;
      }

      .cls-7 {
        fill: #89c3d3;
      }

      .cls-9 {
        fill: #c2272a;
      }
    </style>
  </defs>
  <title>FV_new_LEG_Right</title>
  <g>
    <path class="cls-1" d="M521,1371l-65,13-98-16,29-128c5.46-31,43.16-53.55,74.58-53h0c29.09.56,60.69,20.64,67.42,49l19.9,111.9C550.08,1357.54,530.53,1369.09,521,1371Z"/>
    <path class="cls-1" d="M335,1358c-.3,19.14,30,32,76,33s99-15,112-22c5.13-2.76-8.78-94.09-84-98C362,1267,336,1294,335,1358Z"/>
    <path class="cls-2" d="M387,1277s42-1,70,13,45.37,63.86,45.37,63.86"/>
    <path class="cls-2" d="M338,1349s13,23,70,22,112.89-22.54,112.89-22.54"/>
    <ellipse class="cls-3" cx="509.5" cy="1254" rx="13.5" ry="18" transform="translate(-349.86 208.25) rotate(-17.3)"/>
    <path class="cls-3" d="M356,1379l8-27.6a14.41,14.41,0,0,1,13.84-10.4h30.44a14.42,14.42,0,0,1,13.81,10.28l11.63,38.83s-33.11,1.75-44,0C381,1388.71,356,1379,356,1379Z"/>
    <path class="cls-4" d="M501.09,1239.17S495,1258,514,1269"/>
    <polyline class="cls-2" points="371.23 1366.2 376 1352 407 1353 412 1374 385.89 1372.37"/>
    <path class="cls-5" d="M400,1259l4-17s25.76-1.48,34-1l34,2-3,20s-24.91-5.6-33-6C427,1256.55,400,1259,400,1259Z"/>
    <path class="cls-6" d="M427,1196s-14,17-12,29,53,11,57,8,21.54-33.69,17.77-39.34S443,1181,427,1196Z"/>
    <path class="cls-3" d="M424,1230s3.29-34.66,9-39,24-6,24-6,22.09,1.6,24.54,4.8S471,1204,469,1212s-3.91,21.51-3.91,21.51S434,1237,424,1230Z"/>
    <path class="cls-7" d="M414.69,1242.26,412,1257s18-.38,24,0c5.38.34,21.37,2.74,21.37,2.74l2.06-15.94s-17.71-2.39-23.66-2.57C430.5,1241.07,414.69,1242.26,414.69,1242.26Z"/>
    <path class="cls-4" d="M527.5,1295.5c0,1,8,37,8,37"/>
    <line class="cls-4" x1="469.5" y1="1340.5" x2="473.5" y2="1352.5"/>
    <line class="cls-4" x1="476.5" y1="1328.5" x2="484.5" y2="1349.5"/>
    <line class="cls-4" x1="450.5" y1="1244.5" x2="448.5" y2="1256.5"/>
    <ellipse class="cls-8" cx="449" cy="1196.5" rx="8.5" ry="5"/>
    <ellipse class="cls-8" cx="443.5" cy="1218" rx="8.5" ry="5"/>
    <path class="cls-9" d="M383,1291H370s-23,17-22,43C360,1308,383,1291,383,1291Z"/>
    <polygon class="cls-9" points="394 1234 386 1270 394 1267 394 1234"/>
  </g>
</svg>
