<svg id="Layer_6" data-name="Layer 6" xmlns="http://www.w3.org/2000/svg" viewBox="0 0 1080 1920">
  <defs>
    <style>
      .cls-1 {
        fill: #b97772;
      }

      .cls-2 {
        fill: #c5664e;
      }

      .cls-3 {
        fill: #4d1012;
      }

      .cls-3, .cls-4, .cls-5 {
        stroke: #000;
        stroke-miterlimit: 10;
      }

      .cls-3, .cls-4 {
        stroke-width: 6px;
      }

      .cls-4 {
        fill: #83191b;
      }

      .cls-5 {
        fill: #f5a64a;
        stroke-width: 4px;
      }
    </style>
  </defs>
  <title>FV_new_Arm_Left</title>
  <g>
    <polygon class="cls-1" points="737.01 1009.62 669.08 948.64 743.28 1001.82 747.35 1004.74 740.74 1012.96 737.01 1009.62"/>
    <path class="cls-2" d="M762.3,1022.75l-78.2-57.56-36,45.47,78.2,57.55c14,10.23,31.35,6.67,41.3-5.88h0C777.52,1049.77,776.39,1033.75,762.3,1022.75Z"/>
    <path d="M766.27,1025.14q-5.43-3.35-10.78-6.79l-5.37-3.44-5.32-3.49c-7.12-4.62-14.13-9.39-21.18-14.11l-21-14.39-20.8-14.64,5.25-.72L678.2,979l-9,11.4-9,11.34L651.07,1013l-.56-5.34,19.59,16.39q9.78,8.23,19.63,16.37c6.53,5.48,13.13,10.86,19.73,16.26s13.23,10.73,20.3,15.54a124.45,124.45,0,0,1-11.3-6.13c-1.84-1.1-3.66-2.23-5.48-3.36l-5.39-3.5c-7.18-4.67-14.16-9.62-21.13-14.58s-13.78-10.13-20.6-15.28-13.53-10.45-20.22-15.79a3.78,3.78,0,0,1-.63-5.27l.06-.07L654,996.83l9-11.39,9-11.34,9.11-11.28.06-.08a3.77,3.77,0,0,1,5.19-.64l20.28,15.34L726.76,993c6.64,5.28,13.32,10.5,19.9,15.87l5,4,4.91,4.06Q761.43,1021,766.27,1025.14Z"/>
    <path class="cls-3" d="M650.35,1015.41l44.21,46.45c18.93,17.56,39.69,25.28,64.18,17.12l40.65-22.47-81.3-113.39c-17-13.82-63.89-6.87-77.71,10.1h0C626.55,970.2,633.38,1001.58,650.35,1015.41Z"/>
    <g>
      <path class="cls-4" d="M784.42,947.4c12.65,9.87,30,36.37,34.23,72.74,3,25.64-13.81,41.51-33.16,40.65-9.62-.42-34.45-4.42-48.59-6.8a14.82,14.82,0,0,1-12.1-11.76c-2.9-14.85-9.08-43.07-17.4-62.74-8.53-20.16-30-42.79-30-42.79C697.51,928,740.56,913.17,784.42,947.4Z"/>
      <polygon class="cls-5" points="794.5 959.05 746.98 963.45 741.63 948.47 782.95 945.84 794.5 959.05"/>
      <path class="cls-5" d="M768.37,1057.58l-27.23-2.81s-8.07-26.07,9.05-23.93S768.37,1057.58,768.37,1057.58Z"/>
      <polygon class="cls-5" points="812.76 993.93 757.14 996.07 751.79 980.03 805.28 977.89 812.76 993.93"/>
    </g>
  </g>
</svg>
