<svg id="Layer_2" data-name="Layer 2" xmlns="http://www.w3.org/2000/svg" viewBox="0 0 1080 1920">
  <defs>
    <style>
      .cls-1 {
        fill: #4e0f11;
      }

      .cls-2 {
        fill: none;
      }

      .cls-2, .cls-3, .cls-4 {
        stroke: #000;
      }

      .cls-2, .cls-4 {
        stroke-linecap: round;
        stroke-linejoin: round;
        stroke-width: 8px;
      }

      .cls-3 {
        fill: #f5a64a;
        stroke-miterlimit: 10;
        stroke-width: 7px;
      }

      .cls-4 {
        fill: #82191b;
      }
    </style>
  </defs>
  <title>FV_new_Helmet_Face_Back_1</title>
  <path class="cls-1" d="M355.91,551.69s-38.06,27-52.25,59.17c-15,34-11,63-11,63s194.55-55.36,261.4-56.33c66.25-.95,260.6,48.33,260.6,48.33a283.54,283.54,0,0,0-6-49.89c-9-42-51.09-79.46-51.09-79.46l-107-34.37s-51.82-11.94-90.86-13c-36-1-93.08,12.75-93.08,12.75Z"/>
  <line class="cls-2" x1="442" y1="704" x2="477" y2="700"/>
  <path class="cls-1" d="M812.77,673.57s-135.89-51.09-263-48.68C422.94,627.29,289,683,289,683s7.43,73.2,13.6,99.6c36-6,140.37-12.82,238.4-14.6,110-2,219.43,15.8,259.43,21.8C808.71,730.77,812.77,673.57,812.77,673.57Z"/>
  <g>
    <path class="cls-3" d="M241.36,691.19h0a24,24,0,0,1,24,24v27.09a24,24,0,0,1-24,24h0a0,0,0,0,1,0,0V691.19A0,0,0,0,1,241.36,691.19Z" transform="translate(591.81 1422.05) rotate(173.15)"/>
    <path class="cls-3" d="M262,665.25h.77A32.23,32.23,0,0,1,295,697.48V751a32.23,32.23,0,0,1-32.23,32.23H262a0,0,0,0,1,0,0v-118A0,0,0,0,1,262,665.25Z" transform="translate(641.39 1410.12) rotate(173.15)"/>
  </g>
  <g>
    <path class="cls-3" d="M838.22,698.19h0a24,24,0,0,1,24,24v27.09a24,24,0,0,1-24,24h0a0,0,0,0,1,0,0V698.19A0,0,0,0,1,838.22,698.19Z" transform="translate(93.8 -96.14) rotate(6.85)"/>
    <path class="cls-3" d="M808.57,672.25h.77a32.23,32.23,0,0,1,32.23,32.23V758a32.23,32.23,0,0,1-32.23,32.23h-.77a0,0,0,0,1,0,0v-118A0,0,0,0,1,808.57,672.25Z" transform="translate(93.09 -93.17) rotate(6.85)"/>
  </g>
  <path class="cls-4" d="M809,619c-14.38-55.35-40.89-76.31-58.11-86.86C702.12,502.3,653.69,489.46,560,491c-58.88,1-124.37.51-174.77,31.89C321.88,562.32,313.81,587,301,616c-15,34-11,63-11,63s194.56-55.36,261.4-56.32C617.65,621.72,812,671,812,671S815.85,645.38,809,619ZM476,556c-15.4,3.65-44.76,16.09-59,23-22.64,11-89,47-89,47l4.77-22.81s77.49-51.68,139.89-65.05c16.8-2.74,40.44.15,40.6,4.86C513.6,552.47,485.6,553.72,476,556Zm217.65,26.35c-15.67-5.72-64.15-18.29-64.15-18.29s-33.14-13.38-30.16-22.83,28.14-4.36,36.86-1.37c36,12.35,138.75,62.85,138.75,62.85l5.25,18.58S715.93,590.49,693.65,582.35Z"/>
</svg>
