<svg id="Layer_5" data-name="Layer 5" xmlns="http://www.w3.org/2000/svg" viewBox="0 0 1080 1920">
  <defs>
    <style>
      .cls-1 {
        fill: #f79e7c;
      }

      .cls-2 {
        fill: #b47d3f;
        stroke: #000;
        stroke-linecap: round;
        stroke-linejoin: round;
        stroke-width: 8px;
      }
    </style>
  </defs>
  <title>FV_old_HELMET_Front</title>
  <path class="cls-1" d="M301.07,782.92c5-7.06,10-14,15-20.92l7.55-10.4,1.89-2.59.9-1.25c.29-.39.55-.81.82-1.22a43,43,0,0,0,2.88-5.32c3.42-7.49,5.58-15.81,7.75-24.06s4.17-16.62,6.47-24.86c-1.46,8.44-2.66,16.9-3.95,25.38s-2.62,17-5.48,25.46a48.34,48.34,0,0,1-2.63,6.26c-.26.51-.52,1-.81,1.53l-.44.75-.41.69L329,755.13l-6.54,11c-4.34,7.35-8.72,14.75-12.95,22.1l0,0a5,5,0,1,1-8.67-5A3.22,3.22,0,0,1,301.07,782.92Z"/>
  <path class="cls-1" d="M788.3,788.91c-.38-.82-.88-1.83-1.34-2.75l-1.42-2.84-2.91-5.67-5.9-11.35-6-11.33a79.38,79.38,0,0,1-5.17-12.2,232.7,232.7,0,0,1-6.54-25c-1.8-8.38-3.34-16.78-4.85-25.19,2.31,8.22,4.64,16.44,7.2,24.57A232.33,232.33,0,0,0,770.14,741,72.43,72.43,0,0,0,776,751.85l7.1,10.69,7,10.73,3.49,5.41,1.74,2.73c.59.94,1.13,1.78,1.76,2.85a5,5,0,1,1-8.61,5.11l-.24-.45Z"/>
  <polygon class="cls-2" points="307.19 830.72 318.11 834.63 309.52 785.48 340.73 750.37 349.31 694.99 367.25 692.64 362.57 673.14 389.1 678.6 429.66 655.2 455.4 666.12 463.21 655.2 482.71 666.12 489.73 657.54 513.13 679.38 516.25 699.67 531.86 717.61 542 745.69 563.84 723.85 566.18 692.64 592.7 663.78 641.85 662.22 653.55 681.72 660.57 666.12 670.72 686.4 687.1 719.17 706.6 726.19 708.94 698.89 723.76 717.61 750.29 714.49 765.89 755.05 792.41 792.5 786.17 822.92 792.32 855.35 838.44 624 259.6 623.22 302.96 852.21 307.19 830.72"/>
</svg>
