<svg width="1080" height="1920" viewBox="0 0 1080 1920" fill="none" xmlns="http://www.w3.org/2000/svg">
<path d="M301.069 782.92C306.069 775.86 311.069 768.92 316.069 762L323.619 751.6L325.509 749.01L326.409 747.76C326.699 747.37 326.959 746.95 327.229 746.54C328.313 744.837 329.275 743.059 330.109 741.22C333.529 733.73 335.689 725.41 337.859 717.16C340.029 708.91 342.029 700.54 344.329 692.3C342.869 700.74 341.669 709.2 340.379 717.68C339.089 726.16 337.759 734.68 334.899 743.14C334.17 745.286 333.291 747.378 332.269 749.4C332.009 749.91 331.749 750.4 331.459 750.93L331.019 751.68L330.609 752.37L328.999 755.13L322.459 766.13C318.119 773.48 313.739 780.88 309.509 788.23C309.181 788.799 308.744 789.298 308.222 789.699C307.701 790.099 307.106 790.393 306.472 790.563C305.837 790.734 305.175 790.777 304.523 790.692C303.872 790.606 303.243 790.393 302.674 790.065C302.105 789.737 301.606 789.3 301.205 788.778C300.805 788.257 300.511 787.662 300.341 787.028C300.171 786.393 300.127 785.731 300.212 785.079C300.298 784.428 300.511 783.799 300.839 783.23C300.91 783.122 300.986 783.019 301.069 782.92Z" fill="#F79E7C"/>
<path d="M788.3 788.91C787.92 788.09 787.42 787.08 786.96 786.16L785.54 783.32L782.63 777.65L776.73 766.3L770.73 754.97C768.67 751.055 766.94 746.974 765.56 742.77C762.919 734.564 760.735 726.218 759.02 717.77C757.22 709.39 755.68 700.99 754.17 692.58C756.48 700.8 758.81 709.02 761.37 717.15C763.856 725.254 766.784 733.216 770.14 741C771.781 744.777 773.742 748.407 776 751.85L783.1 762.54L790.1 773.27L793.59 778.68L795.33 781.41C795.92 782.35 796.46 783.19 797.09 784.26C797.425 784.825 797.646 785.451 797.74 786.102C797.834 786.753 797.798 787.415 797.636 788.052C797.473 788.69 797.187 789.288 796.793 789.815C796.399 790.341 795.905 790.785 795.34 791.12C794.775 791.456 794.149 791.677 793.498 791.77C792.847 791.864 792.184 791.828 791.547 791.666C790.91 791.503 790.312 791.217 789.785 790.823C789.259 790.429 788.815 789.935 788.48 789.37L788.24 788.92L788.3 788.91Z" fill="#F79E7C"/>
<path fill-rule="evenodd" clip-rule="evenodd" d="M821 611.154C813.718 607.205 806.341 603.408 798.873 599.768C790.375 601.69 773.91 598.47 773.91 598.47L694.52 580.88L630.37 562.59C630.37 562.59 606.379 552.994 599.825 544.351C582.592 542.795 565.139 542 547.5 542C536.243 542 525.062 542.324 513.966 542.962C511.549 552.249 483.71 564.15 483.71 564.15L420.52 582.87L351 595C351 595 318.193 602.335 308.901 593.737C296.004 599.633 283.363 605.992 271 612.793V621.316L821 621.106V611.154Z" fill="#DAA56D"/>
<path d="M307.19 830.72L318.11 834.63L309.52 785.48L340.73 750.37L349.31 694.99L367.25 692.64L362.57 673.14L389.1 678.6L429.66 655.2L455.4 666.12L463.21 655.2L482.71 666.12L489.73 657.54L513.13 679.38L516.25 699.67L531.86 717.61L542 745.69L563.84 723.85L566.18 692.64L592.7 663.78L641.85 662.22L653.55 681.72L660.57 666.12L670.72 686.4L687.1 719.17L706.6 726.19L708.94 698.89L723.76 717.61L750.29 714.49L765.89 755.05L792.41 792.5L786.17 822.92L792.32 855.35L838.44 624L259.6 623.22L302.96 852.21L307.19 830.72Z" fill="#B47D3F" stroke="black" stroke-width="8" stroke-linecap="round" stroke-linejoin="round"/>
<path d="M510.79 545.2C502.99 554.57 458.53 572.51 428.1 578.75C397.67 584.99 316.55 608.39 308 592M804.66 591.23C796.08 607.61 714.95 584.23 684.52 577.97C654.09 571.71 609.63 553.79 601.83 544.42" stroke="black" stroke-width="8" stroke-linecap="round" stroke-linejoin="round"/>
</svg>
