<svg id="Layer_4" data-name="Layer 4" xmlns="http://www.w3.org/2000/svg" viewBox="0 0 1080 1920">
  <defs>
    <style>
      .cls-1 {
        fill: #8c4b1d;
      }

      .cls-1, .cls-2, .cls-4, .cls-5, .cls-6 {
        stroke: #000;
        stroke-linecap: round;
        stroke-linejoin: round;
      }

      .cls-1, .cls-2, .cls-4, .cls-5 {
        stroke-width: 8px;
      }

      .cls-2 {
        fill: #daa56d;
      }

      .cls-3, .cls-4 {
        fill: #b47d3f;
      }

      .cls-5 {
        fill: #1e71ae;
      }

      .cls-6 {
        fill: none;
        stroke-width: 4px;
      }
    </style>
  </defs>
  <title>FV_old_Body</title>
  <polygon class="cls-1" points="727.66 1204.39 715.18 1134.97 414.06 1141.21 428.88 1216.1 727.66 1204.39"/>
  <g>
    <path class="cls-2" d="M448.3,933.14l-33.46,13-20.28,203.61L695.68,1156,714.4,1135,680.08,943.84l-40-11.5s-44.18,23.47-81.69,24C501.43,957.1,448.3,933.14,448.3,933.14Z"/>
    <polygon class="cls-3" points="676.18 946.96 693.34 1152.13 712.06 1132.63 676.18 946.96"/>
    <polygon class="cls-4" points="382.07 1219.22 394.56 1149.79 695.68 1156.03 680.86 1230.92 382.07 1219.22"/>
    <polygon class="cls-5" points="448.38 932.92 452.29 957.1 413.79 970.63 414.84 946.18 448.38 932.92"/>
    <polygon class="cls-5" points="684.6 971.83 644.19 963.34 639.47 935.13 677.98 944.75 684.6 971.83"/>
  </g>
  <g>
    <g>
      <path d="M423.33,1190.71h0a7.49,7.49,0,0,1-7.58-8.82l1.76-12.58h17.65l-1.77,12.58A10.5,10.5,0,0,1,423.33,1190.71Z"/>
      <polygon points="422.85 1203.47 420.6 1203.47 423.34 1183.95 425.59 1183.95 422.85 1203.47"/>
      <polygon points="428.04 1201.22 427.73 1203.47 415.34 1203.47 415.66 1201.22 428.04 1201.22"/>
    </g>
    <path class="cls-6" d="M428.31,1209.86H414.09a8.94,8.94,0,0,1-9-10.54l4-28.48a12.54,12.54,0,0,1,12-10.54h14.23a9,9,0,0,1,9.05,10.54l-4,28.48A12.52,12.52,0,0,1,428.31,1209.86Z"/>
  </g>
  <g>
    <path d="M478.29,1170.53h0a14.73,14.73,0,0,0-14.13,12.39l-.11.75h24.78l.1-.75C489.89,1176.07,485.13,1170.53,478.29,1170.53Z"/>
    <path d="M476.89,1169.78l-4.54,32.29a1.77,1.77,0,0,1-1.7,1.49h-3.76l-.32,2.25h4.68a3.36,3.36,0,0,0,3.22-2.82l4.67-33.21a1,1,0,0,0-1-1.13h0A1.34,1.34,0,0,0,476.89,1169.78Z"/>
    <path class="cls-6" d="M479.54,1212.2H465.32a8.94,8.94,0,0,1-9.05-10.53l4-28.49a12.52,12.52,0,0,1,12-10.53H486.5a9,9,0,0,1,9.06,10.53l-4,28.49A12.52,12.52,0,0,1,479.54,1212.2Z"/>
  </g>
  <g>
    <polygon points="537.02 1203.22 536.7 1205.47 513.05 1205.47 513.37 1203.22 537.02 1203.22"/>
    <path class="cls-6" d="M530.42,1212.6H516.2a8.93,8.93,0,0,1-9.05-10.53l4-28.49a12.53,12.53,0,0,1,12-10.53h14.23a8.94,8.94,0,0,1,9.05,10.53l-4,28.49A12.53,12.53,0,0,1,530.42,1212.6Z"/>
    <g>
      <g>
        <polygon points="534.01 1200.59 531.76 1200.59 534.5 1181.07 536.75 1181.07 534.01 1200.59"/>
        <polygon points="541.21 1184.07 529.2 1184.07 536.94 1172.06 541.21 1184.07"/>
      </g>
      <g>
        <polygon points="518.99 1200.59 516.74 1200.59 519.49 1181.07 521.74 1181.07 518.99 1200.59"/>
        <polygon points="526.2 1184.07 514.18 1184.07 521.92 1172.06 526.2 1184.07"/>
      </g>
    </g>
  </g>
</svg>
