<svg id="Layer_5" data-name="Layer 5" xmlns="http://www.w3.org/2000/svg" viewBox="0 0 1080 1920">
  <defs>
    <style>
      .cls-1 {
        fill: #8c4b1d;
      }

      .cls-1, .cls-3 {
        stroke: #000;
        stroke-linecap: round;
        stroke-linejoin: round;
        stroke-width: 8px;
      }

      .cls-2 {
        fill: #daa56d;
      }

      .cls-3 {
        fill: none;
      }
    </style>
  </defs>
  <title>FV_old_HELMET_back._1ai</title>
  <polygon class="cls-1" points="258 621 334.49 510.6 772.91 509 838 624 258 621"/>
  <path class="cls-2" d="M773.13,511.88H752.85l-286.3-.79L354,513l-18.51.44L261,621.32l574.52-.22ZM483.71,564.15l-63.19,18.72L351,595s-39,8.72-44-4c-2.16-5.54,12.11-10.47,12.11-10.47L337,571s136.56-31.21,138.13-31c4.65.52,38.84-3.14,39,1.56C514.47,551,483.71,564.15,483.71,564.15Zm290.2,34.32-79.39-17.59-64.15-18.29s-35-14-32-23.41,39.79-.78,39.79-.78l.83-2.49,130.58,28.35,1.21,3.79s39.11,14.82,32.76,28.86C800.5,603.67,773.91,598.47,773.91,598.47Z"/>
  <path class="cls-3" d="M474.21,540.46c31.87-3.62,41.84-1.56,36.58,4.74-7.8,9.37-52.26,27.31-82.69,33.55S316.55,608.39,308,592c0,0-13-21,165-51m163-2c170,22,168.66,52.23,168.66,52.23-8.58,16.38-89.71-7-120.14-13.26s-74.89-24.18-82.69-33.55c-5.09-6.11,4.13-8.23,33.75-5"/>
  <polygon class="cls-1" points="258.82 623.22 303.29 858.03 790.85 858.81 837.66 624 258.82 623.22"/>
</svg>
